<?xml version="1.0" encoding="UTF-8"?>
<svg id="Layer_2" xmlns="http://www.w3.org/2000/svg" width="31.84" height="56.79" version="1.1" viewBox="0 0 31.84 56.79">
  <!-- Generator: Adobe Illustrator 29.3.1, SVG Export Plug-In . SVG Version: 2.1.0 Build 151)  -->
  <defs>
    <style>
      .st0, .st1 {
        fill-rule: evenodd;
      }

      .st0, .st2 {
        fill: #fff;
      }

      .st3 {
        fill: gray;
      }

      .st4 {
        fill: #ccc;
      }

      .st5 {
        fill: #000072;
      }

      .st6 {
        opacity: .75;
      }

      .st7 {
        opacity: .3;
      }

      .st8 {
        fill: #999;
      }
    </style>
  </defs>
  <g>
    <path d="M29.4,19.6c.98-2.12,2.03-4.48,1.37-6.87-.33-1.19-1-1.95-.92-3.26.08-1.28-.07-2.61-.56-3.8-1.88-4.58-8.09-6.72-12.32-4.55C14.63-.15,11.33-.36,8.87.59c-2.57.99-3.73,2.92-4.83,5.3-.54,1.17-1.81,1.89-2.43,3.11-.58,1.14-.9,2.49-.8,3.78.05.62.28,1.17.42,1.77.16.7.08,1.39.2,2.1.2,1.28.8,2.38,1.65,3.32-.28.47-.45,1.02-.47,1.64-.03,1.12.38,2.16,1.12,2.79.7.59,1.54.73,2.46.73.2,0,.4,0,.61-.02.14.95.35,1.92.71,2.84,1.02,2.66,3.05,4.42,5.81,5.11-.41,1.5-1.55,2.46-2.75,3.45-.24.21-.49.41-.73.62-1.22,1.06-2.03,2.29-2.56,3.86-1.24,3.66-1.17,7.64-1.11,11.5v.46c.01.28.23.43.44.43h0c.21,0,.42-.15.42-.43,0-.35-.01-.71-.02-1.07-.08-3.8-.16-8.09,1.45-11.57.43-.94,1.13-1.69,1.88-2.38,1.69,1.61,3.99,2.42,6.3,2.42,2.09,0,4.17-.68,5.78-2.04.55.57,1.06,1.17,1.51,1.87,1.11,1.74,1.37,4.03,1.59,6.04.24,2.16.31,4.36.37,6.49v.08c.01.28.23.42.45.42h.01c.21,0,.42-.16.41-.43-.02-.49-.03-.98-.04-1.49-.08-3.45-.16-7.02-1.33-10.15-.52-1.38-1.5-2.58-2.29-3.47-.38-.42-.84-.82-1.29-1.2-1.13-.97-2.29-1.97-2.34-3.48,2.68-.68,4.75-2.22,5.81-4.42.49-1.03.73-2.16.87-3.31,1.78-.18,3.58-1.41,3.7-3.52.05-.78-.13-1.45-.53-2,.04-.03.07-.08.1-.14h0ZM3.48,22c-.08-.87.22-1.64.81-2.1.59-.46,1.38-.57,2.19-.31.01.75.03,1.5.06,2.24.02.76.06,1.57.14,2.4-2.04.04-3.05-.67-3.19-2.23h0ZM7.26,17.22c0-.73,0-1.48,0-2.23.68.57,1.53.91,2.51.99.31.03.53-.33.45-.61-.45-1.6-.36-3.44.83-4.72,1.14-1.24,2.96-1.46,4.36-.57.21.13.41.07.54-.06,2.48-.05,1.34,4.17.66,5.42-.14.25-.03.65.28.71.91.17,1.77.06,2.53-.29.04.02.08.03.12.04,1.18.19,2.32-.08,3.24-.76.78.51,1.85.24,2.79-.29.07,1.22.14,2.5.16,3.79,0,.03,0,.05,0,.08,0,.04,0,.08.01.12v.15c-.43.15-.85.34-1.25.56-.72-1.05-2.23-1.21-3.62-1.11-.82-.01-1.69.06-2.24.53-.5.42-.6,1.07-.61,1.72-.87-.01-1.74,0-2.61.03,0-.03,0-.05,0-.08-.28-2.03-2.25-2.32-4.03-2.19-.82-.01-1.68.06-2.23.53-.26.22-.41.49-.5.79-.44-.05-.94-.14-1.38-.04,0-.83,0-1.67,0-2.5h0ZM18.87,21.22c-.01-.8,0-1.54.79-1.76.13-.02.26-.04.4-.06.69-.07,1.39-.05,2.08-.02.06,0,.12,0,.16-.03.94.16,1.7.67,1.77,1.87.03.63,0,1.32-.19,1.93-.39,1.26-1.64,1.38-2.73,1.33-1.08-.05-1.93-.25-2.21-1.45-.13-.57-.06-1.22-.07-1.81h0ZM9.38,21.22c-.01-.8,0-1.54.79-1.76.13-.02.26-.04.4-.06.69-.07,1.39-.05,2.08-.02.06,0,.12,0,.16-.03.94.16,1.7.67,1.77,1.87.04.63,0,1.32-.19,1.93-.39,1.26-1.64,1.38-2.73,1.33-1.08-.05-1.93-.25-2.2-1.45-.13-.57-.07-1.22-.07-1.81h0ZM20.94,36.87s.06.05.09.08c.29.27.57.53.85.8-1.48,1.24-3.51,1.9-5.62,1.81-2.04-.09-3.96-.88-5.33-2.16.08-.07.16-.14.24-.21.11-.09.21-.19.32-.28,1.35,1.2,3,1.87,4.71,1.87h.07c1.71-.02,3.35-.7,4.67-1.9h0ZM20.17,36.15c.07.07.14.13.21.2-2.45,2.2-5.84,2.23-8.32.05.93-.87,1.77-1.84,2.1-3.16.53.08,1.07.14,1.64.15.12,0,.25,0,.37,0,.85,0,1.67-.07,2.44-.21.07,1.06.57,2.02,1.56,2.97h0ZM25.01,26.66c-.57,2.31-2.45,4.72-6.03,5.55,0,0-.01,0-.02,0-.93.21-1.98.32-3.16.29-4.18-.11-7.08-2.46-7.97-6.46-.4-1.81-.53-3.72-.57-5.64.18-.1.52-.02.7,0,.19.01.38.03.57.04-.02.39,0,.79.01,1.16.02.98-.07,2.16.62,2.95.73.83,2.14.84,3.14.81,1.02-.03,2-.26,2.58-1.19.47-.75.61-1.81.57-2.76.85-.03,1.71-.04,2.57-.03,0,.08,0,.15,0,.23.02.98-.07,2.16.62,2.95.73.83,2.14.84,3.14.81,1.02-.03,2-.26,2.58-1.19.61-.96.66-2.43.5-3.52-.02-.17-.06-.32-.11-.47.31-.18.62-.33.96-.45,0,2.38-.18,4.77-.72,6.95h0ZM28.95,21.85c-.2,1.53-1.46,2.34-2.72,2.51.04-.42.07-.84.09-1.26l.04-.59c.08-1.07.12-2.18.13-3.3.87.1,1.6.43,2.02.94.37.45.51,1.02.42,1.7Z"/>
    <path d="M21.3,23.43c1.01-.09,1.19-1.24,1.05-2.05-.08-.44-.25-.88-.65-1.1-.23-.13-.48-.15-.71-.08-1.44.11-1.46,3.39.31,3.23h0Z"/>
    <path d="M12.19,23.43c1.01-.09,1.19-1.24,1.05-2.05-.08-.44-.25-.88-.65-1.1-.23-.13-.48-.15-.71-.08-1.44.11-1.46,3.39.31,3.23h0Z"/>
    <path d="M17.41,26.02c-.55.08-1.1.09-1.66.04-.43-.04-.43.65,0,.69.62.06,1.22.03,1.84-.06.43-.06.25-.73-.18-.66h0Z"/>
    <path d="M9.4,17.65c1.14.02,2.27.07,3.41.15.43.03.43-.66,0-.69-1.13-.08-2.27-.13-3.41-.15-.43,0-.43.68,0,.69Z"/>
    <path d="M19.48,17.88c1.23-.07,2.47-.07,3.7-.03.43.02.43-.67,0-.69-1.23-.05-2.47-.04-3.7.03-.43.02-.43.71,0,.69Z"/>
    <path d="M10.96,40.48c-.11-.08-.26-.09-.4-.03-.14.06-.22.18-.24.33-.48,4.05-.74,8.17-.78,12.24,0,.14.06.25.17.32.06.04.13.06.21.06s.14-.02.2-.05c.11-.07.18-.18.18-.32.04-4.07.3-8.19.78-12.23.02-.13-.03-.24-.11-.3h0Z"/>
    <path d="M22.06,40.53c-.14-.03-.3.01-.39.12-.09.09-.11.22-.07.35,1.15,3.85,1.05,7.8.83,11.85-.01.24.16.37.34.38,0,0,.02,0,.02,0,.19,0,.38-.13.4-.37.21-3.93.32-8.11-.86-12.06-.04-.14-.14-.23-.27-.26h0Z"/>
  </g>
  <path d="M28.57,55.56c-1.26,0-2.31-.7-2.36-.73l.51-.75s1.26.83,2.45.5c.68-.19,1.23-.73,1.65-1.6.33-.71.34-2.65-3.38-7.78-2.18-3-4.59-5.63-4.61-5.65l.67-.61c1.01,1.1,9.84,10.85,8.14,14.44-.53,1.13-1.28,1.83-2.23,2.09-.28.08-.56.11-.83.11h0Z"/>
  <path d="M3.28,55.56c-.27,0-.55-.03-.83-.11-.95-.26-1.7-.96-2.23-2.09-1.69-3.58,7.13-13.33,8.14-14.44l.67.61s-2.43,2.65-4.61,5.65c-3.72,5.13-3.71,7.08-3.38,7.78.41.87.97,1.41,1.65,1.6,1.19.33,2.44-.49,2.45-.5l.51.75c-.05.04-1.1.73-2.36.73h0Z"/>
  <g>
    <g>
      <path class="st4" d="M28.91,54.11c-.14.68-.52,1.27-1.04,1.69-.52.42-1.18.66-1.89.66H5.79c-1.42,0-2.65-.98-2.93-2.35h26.06Z"/>
      <path class="st5" d="M25.98,56.52H5.79c-1.44,0-2.7-1.01-2.98-2.4v-.06s26.18,0,26.18,0v.06c-.15.67-.53,1.29-1.07,1.72-.54.44-1.23.68-1.93.68h0ZM2.92,54.17c.3,1.31,1.5,2.25,2.86,2.25h20.19c.68,0,1.34-.23,1.86-.65.51-.41.86-.97,1-1.6H2.92h0Z"/>
    </g>
    <path d="M25.98,56.79H5.79c-1.57,0-2.94-1.1-3.25-2.61-.02-.1,0-.19.07-.27.06-.07.16-.12.25-.12h26.06c.1,0,.19.04.25.12s.09.17.07.27c-.31,1.51-1.68,2.61-3.25,2.61h0ZM3.29,54.44c.38,1.01,1.37,1.71,2.5,1.71h20.19c1.12,0,2.11-.7,2.5-1.71H3.29Z"/>
    <g class="st7">
      <path class="st8" d="M28.91,54.11c-.14.68-.52,1.27-1.04,1.69-.52.42-1.18.66-1.89.66h-12.49c2.05-.1,3.87-.65,5.44-1.71,0,0,.11-.26.35-.64h9.64Z"/>
    </g>
    <g>
      <path class="st4" d="M28.9,41.67l-1.05,11.81c-.06.72-.68,1.27-1.41,1.27H5.33c-.74,0-1.35-.55-1.41-1.27l-1.05-11.81c-.1-1.16.83-2.16,2.01-2.16h22.02c.39,0,.75.11,1.05.29.63.38,1.03,1.09.96,1.87h0Z"/>
      <path class="st5" d="M26.43,54.81H5.33c-.77,0-1.4-.57-1.47-1.32l-1.05-11.81c-.05-.57.14-1.13.54-1.55s.95-.66,1.53-.66h22.02c.38,0,.76.1,1.08.3.68.41,1.05,1.14.98,1.92h0l-1.05,11.81c-.07.75-.7,1.32-1.47,1.32h0ZM4.88,39.57c-.55,0-1.08.23-1.45.63-.37.4-.56.93-.51,1.47l1.05,11.81c.06.7.65,1.22,1.36,1.22h21.1c.71,0,1.3-.53,1.36-1.22l1.05-11.81c.07-.73-.29-1.43-.93-1.82-.31-.19-.66-.28-1.03-.28H4.88Z"/>
    </g>
    <g class="st6">
      <path class="st2" d="M28.57,40.39c-.26-.12-.55-.18-.85-.18H5.7c-1.18,0-2.11,1-2.01,2.16l1.05,11.81c.02.18.07.36.15.51-.53-.17-.93-.63-.98-1.2l-1.05-11.81c-.1-1.16.83-2.16,2.01-2.16h22.02c.7,0,1.31.35,1.68.88h0Z"/>
    </g>
    <path d="M26.43,55.08H5.33c-.91,0-1.66-.67-1.74-1.57l-1.05-11.81c-.06-.64.16-1.28.61-1.76.44-.48,1.07-.75,1.73-.75h22.02c.66,0,1.29.27,1.73.75.44.48.67,1.12.61,1.76l-1.05,11.81c-.08.89-.83,1.57-1.74,1.57ZM4.88,39.84c-.48,0-.92.19-1.25.54-.32.35-.48.8-.44,1.27l1.05,11.81c.05.56.52.98,1.09.98h21.1c.57,0,1.04-.42,1.09-.98l1.05-11.81c.04-.47-.11-.92-.44-1.27-.32-.35-.77-.54-1.25-.54H4.88Z"/>
    <g class="st7">
      <path class="st3" d="M28.9,41.67l-1.05,11.81c-.06.72-.68,1.27-1.41,1.27H7.4c11.71-.91,18.96-5.55,20.54-14.95h0c.63.38,1.03,1.09.96,1.87h0Z"/>
    </g>
    <g class="st7">
      <path class="st2" d="M8.18,49.43l-1.32.12c-.34.03-.65-.22-.68-.55l-.45-4.77c-.03-.34.22-.64.56-.67l1.32-.12c.34-.03.65.22.68.55l.45,4.77c.03.34-.22.64-.56.67Z"/>
    </g>
    <g>
      <path class="st0" d="M17.71,49.75l-.24.19-.03.6c0,.16-.16.29-.33.28h0c-.17,0-.31-.14-.3-.3v-.25s-.03-.09-.09-.09h0c-.05,0-.1.04-.1.09v.25c-.01.16-.16.29-.33.28h0c-.17,0-.31-.14-.31-.3v-.21c0-.07-.06-.13-.14-.14h0c-.08,0-.14.06-.14.13v.21c0,.16-.14.29-.32.28h0c-.17,0-.31-.14-.32-.3v-.25s-.05-.09-.1-.09h0c-.05,0-.1.04-.09.09v.25c0,.16-.13.29-.3.28h0c-.17,0-.32-.14-.32-.3l-.02-.6-.23-.2c-.61-.52-.99-1.27-1.04-2.08-.09-1.66,1.22-3.08,2.94-3.05,1.73.03,3.03,1.5,2.91,3.17-.06.81-.46,1.55-1.09,2.05h0Z"/>
      <path d="M15.85,44.53h.05c1.73.03,3.03,1.5,2.91,3.17-.06.81-.46,1.55-1.09,2.05l-.24.19-.03.6c0,.16-.15.28-.32.28h-.01c-.17,0-.31-.14-.3-.3v-.25s-.03-.09-.09-.09h0c-.05,0-.09.04-.1.09v.25c-.01.16-.15.28-.32.28h0c-.17,0-.31-.14-.31-.3v-.21c0-.07-.06-.13-.14-.14h0c-.08,0-.14.06-.14.13v.21c0,.16-.14.28-.31.28h0c-.17,0-.31-.14-.32-.3v-.25s-.05-.09-.1-.09h0c-.05,0-.09.04-.09.09v.25c0,.16-.13.28-.3.28h-.01c-.17,0-.32-.14-.32-.3l-.02-.6-.23-.2c-.61-.52-.99-1.27-1.04-2.08-.09-1.64,1.19-3.05,2.89-3.05M15.85,44h0c-.95,0-1.82.37-2.47,1.04-.66.68-1,1.61-.95,2.56.05.94.5,1.83,1.22,2.44l.06.05v.37c.02.44.39.8.85.81h.02c.14,0,.27-.03.38-.09.12.07.26.11.41.11h.02c.16,0,.3-.04.43-.12.13.08.28.13.45.14h.02c.14,0,.27-.03.39-.09.12.07.26.11.41.11h.02c.46,0,.83-.34.85-.78l.02-.37.05-.04c.75-.59,1.22-1.47,1.29-2.41.07-.96-.26-1.91-.92-2.62-.65-.7-1.54-1.1-2.51-1.11h-.06Z"/>
      <g>
        <path class="st1" d="M14.73,46.9c-.46,0-.81.36-.79.81.02.44.4.79.84.8.44,0,.8-.35.79-.79,0-.45-.39-.82-.84-.82h0Z"/>
        <path class="st1" d="M17.02,46.87c-.46,0-.84.37-.84.82,0,.44.36.8.8.8.45,0,.82-.35.84-.79.02-.45-.34-.82-.8-.83h0Z"/>
      </g>
    </g>
  </g>
</svg>